<svg preserveAspectRatio="none" width="100%" height="100%" overflow="visible" style="display: block;" viewBox="0 0 24 24" fill="none" xmlns="http://www.w3.org/2000/svg">
<g id="&#235;&#132;&#164;&#236;&#157;&#180;&#235;&#178;&#132;">
<path id="&#237;&#131;&#128;&#236;&#155;&#144; 39" d="M12 24C18.6274 24 24 18.6274 24 12C24 5.37258 18.6274 0 12 0C5.37258 0 0 5.37258 0 12C0 18.6274 5.37258 24 12 24Z" fill="var(--fill-0, #F9DB00)"/>
<path id="&#237;&#140;&#168;&#236;&#138;&#164; 10555-3" d="M12.0003 6.03164C8.68729 6.03164 5.99512 8.32729 5.99512 11.1551C6.05251 12.976 7.09599 14.6247 8.72381 15.449L8.16033 17.969L10.8682 16.1899C11.2438 16.2525 11.6195 16.2838 12.0003 16.2838C15.3134 16.2838 18.0056 13.9882 18.0056 11.1603C18.0056 8.33251 15.3186 6.03686 12.0003 6.03686" fill="var(--fill-0, #3E1918)"/>
</g>
</svg>
